<?xml version="1.0" standalone="no"?>
<!DOCTYPE svg PUBLIC "-//W3C//DTD SVG 20010904//EN"
 "http://www.w3.org/TR/2001/REC-SVG-20010904/DTD/svg10.dtd">
<svg version="1.0" xmlns="http://www.w3.org/2000/svg"
 width="1280.000000pt" height="923.000000pt" viewBox="0 0 1280.000000 923.000000"
 preserveAspectRatio="xMidYMid meet">
<g transform="translate(0.000000,923.000000) scale(0.100000,-0.100000)"
fill="#000000" stroke="none">
<path d="M8251 9210 c-100 -39 -158 -115 -192 -251 -40 -156 -11 -308 71 -383
75 -68 207 -96 455 -96 72 0 135 -4 142 -8 17 -10 94 -182 87 -193 -3 -5 -20
-9 -38 -9 -18 0 -61 -3 -96 -7 l-62 -6 5 -76 c3 -42 13 -143 21 -225 9 -96 11
-156 5 -167 -6 -11 -26 -20 -57 -24 -26 -3 -146 -22 -267 -41 -120 -19 -260
-37 -310 -41 l-90 -5 -109 46 c-244 105 -389 131 -965 176 -414 33 -555 25
-733 -40 -158 -58 -300 -162 -494 -361 -147 -152 -178 -204 -399 -660 -52
-107 -106 -208 -119 -222 -30 -32 -67 -34 -246 -12 -230 27 -444 87 -628 175
-174 83 -301 189 -351 294 l-24 48 23 65 c19 54 22 78 18 152 -6 105 -26 152
-81 192 -77 56 -177 75 -906 174 -178 24 -290 44 -344 62 -90 30 -201 96 -332
199 -183 144 -263 189 -400 224 -67 17 -111 20 -300 20 -288 0 -273 8 -277
-163 l-3 -121 -70 -11 c-87 -13 -95 -18 -95 -59 0 -72 87 -221 341 -581 59
-82 114 -165 123 -183 16 -32 16 -35 -7 -85 -29 -63 -66 -101 -127 -132 -71
-35 -131 -45 -314 -54 -183 -9 -223 -19 -265 -65 -29 -31 -45 -28 -143 20
-119 60 -232 43 -312 -47 -30 -32 -36 -47 -36 -84 0 -37 6 -52 36 -84 49 -55
125 -91 188 -91 55 0 105 19 196 75 86 52 149 46 211 -22 37 -39 59 -86 59
-124 0 -36 -43 -121 -98 -194 l-38 -50 -140 -3 -140 -3 -61 -129 -61 -130 -69
0 c-59 0 -74 -4 -104 -26 -55 -42 -110 -64 -165 -64 -42 0 -56 -5 -79 -27 -32
-32 -57 -85 -76 -161 -10 -42 -11 -69 -1 -135 7 -46 12 -109 12 -141 0 -98 27
-133 191 -249 165 -115 220 -191 238 -326 15 -111 21 -115 184 -121 l133 -5
82 -59 c46 -33 105 -84 133 -113 49 -51 50 -55 44 -95 -4 -23 -36 -127 -72
-232 -130 -384 -148 -495 -140 -849 6 -258 17 -354 66 -552 153 -623 576
-1171 1070 -1385 183 -79 321 -107 574 -116 371 -13 572 25 792 148 280 156
548 465 745 857 28 56 57 104 64 107 19 7 466 -212 502 -247 26 -25 44 -32
125 -44 84 -14 365 -92 524 -147 33 -11 85 -35 115 -53 30 -18 64 -35 75 -38
11 -4 144 -16 295 -27 572 -42 1131 -100 1420 -146 571 -91 804 -117 1055
-118 227 -1 246 3 363 83 56 37 62 45 62 76 0 44 -41 173 -95 300 -54 124 -88
186 -137 249 -60 76 -61 96 -14 251 25 81 28 107 29 250 l1 160 -41 115 c-22
63 -58 158 -78 210 -29 74 -39 114 -44 185 -5 68 -11 99 -29 126 -29 48 -28
61 11 102 39 42 74 52 237 72 149 19 155 20 201 51 48 33 76 86 85 162 8 77
29 96 91 86 22 -3 45 -9 50 -13 10 -6 58 -360 57 -421 0 -20 -29 -102 -66
-190 -139 -331 -191 -590 -191 -960 0 -314 35 -546 124 -815 149 -451 508
-970 846 -1224 253 -191 571 -311 928 -351 55 -6 133 -15 173 -20 93 -13 223
-13 293 0 30 5 96 16 148 25 205 35 459 143 641 272 115 83 297 257 390 373
230 289 401 666 475 1047 20 104 45 297 51 408 7 101 -23 393 -56 555 -71 350
-247 758 -445 1032 -33 46 -152 176 -264 290 -111 113 -200 211 -197 216 3 6
58 13 121 17 86 6 115 11 115 21 0 48 -197 187 -425 300 -311 154 -675 244
-981 244 -45 0 -75 5 -81 13 -6 6 -16 36 -23 66 -16 66 -49 104 -120 139 -45
22 -55 32 -55 52 0 44 61 39 253 -19 156 -47 257 -71 361 -86 l43 -6 -7 59 -7
59 114 80 c62 44 190 140 283 212 112 86 179 131 195 131 37 0 128 26 155 44
37 25 56 60 72 133 13 64 13 68 -5 83 -16 12 -36 102 -106 461 -47 245 -86
455 -86 465 0 10 12 37 25 59 33 53 32 100 -2 150 -15 22 -81 110 -148 195
-67 85 -135 175 -152 200 -36 51 -211 348 -328 553 l-78 138 6 76 c8 110 43
174 169 310 57 61 117 135 133 165 72 131 9 309 -143 407 -217 138 -354 -15
-368 -414 -7 -185 -6 -187 104 -200 96 -12 121 -28 96 -63 -8 -12 -36 -33 -62
-46 -88 -44 -82 -46 -154 51 -36 49 -110 140 -165 203 -164 191 -284 332 -356
417 -82 97 -174 173 -253 210 -56 26 -67 28 -194 27 -198 -1 -254 -17 -550
-160 -97 -46 -193 -87 -213 -91 -38 -6 -39 -5 -170 126 -148 149 -183 170
-326 201 -114 24 -210 24 -270 0z m-6357 -1143 c132 -66 264 -193 216 -209
-24 -8 -553 22 -566 32 -18 16 -74 154 -74 184 0 41 23 47 181 44 l146 -3 97
-48z m7215 -43 c76 -57 171 -161 171 -187 0 -19 -5 -20 -142 -14 -78 4 -146
11 -151 16 -7 7 -4 19 7 35 11 18 16 48 16 104 0 111 8 115 99 46z m71 -285
c107 -6 199 -15 204 -20 11 -10 46 -116 46 -141 0 -9 -16 -26 -36 -37 -36 -21
-36 -22 -32 -84 3 -58 2 -62 -23 -74 -56 -27 -72 -22 -86 28 l-13 46 -78 13
c-120 19 -135 35 -87 92 31 37 32 65 1 79 -31 15 -88 1 -191 -45 -106 -47
-131 -47 -152 2 -8 20 -16 51 -17 67 -1 27 5 33 64 63 60 31 70 33 135 28 39
-3 158 -11 265 -17z m1035 -899 c190 -21 645 -88 804 -119 127 -25 165 -46
261 -148 133 -139 265 -350 342 -543 36 -92 41 -116 42 -189 1 -80 0 -84 -27
-105 -97 -72 -560 62 -1279 372 -155 67 -267 138 -310 196 -53 71 -174 357
-198 468 -24 106 -8 109 365 68z m-7954 -552 c24 -17 95 -74 158 -126 110 -92
178 -140 357 -252 49 -30 114 -81 145 -112 60 -60 105 -138 95 -163 -11 -30
-47 -14 -148 65 -157 121 -274 198 -314 206 -49 9 -101 -9 -160 -53 -41 -32
-61 -40 -128 -49 -130 -19 -154 -64 -130 -241 17 -126 17 -215 2 -235 -12 -16
-312 -162 -482 -235 -96 -41 -108 -38 -198 48 -57 53 -60 60 -54 90 3 19 17
49 31 69 13 19 71 103 129 185 58 83 173 250 256 372 222 325 337 463 385 463
7 0 32 -14 56 -32z m1169 -590 c34 -18 90 -58 124 -89 l61 -56 5 -99 5 -99 48
-9 c41 -7 50 -13 59 -37 6 -18 17 -29 28 -29 19 0 30 -19 30 -53 0 -37 -14
-51 -39 -38 -58 31 -446 423 -476 480 -23 45 -11 61 45 61 34 0 65 -9 110 -32z
m6666 -718 c29 -85 53 -163 53 -172 1 -30 -66 -62 -299 -143 -100 -35 -123
-34 -135 6 -8 24 -4 52 37 222 30 128 30 128 71 154 56 36 188 94 207 90 9 -1
34 -60 66 -157z m-8175 -1367 c31 -18 59 -67 59 -103 0 -12 -13 -35 -29 -51
-26 -26 -37 -29 -89 -29 -66 0 -88 15 -78 53 8 33 83 147 97 147 6 0 24 -8 40
-17z m697 -947 c40 -15 45 -15 82 4 22 11 44 20 50 20 6 0 97 -40 203 -90
l192 -90 -3 -32 c-10 -126 -223 -401 -372 -483 -50 -27 -63 -30 -150 -30 -89
0 -99 2 -155 34 -151 84 -355 283 -447 433 -21 34 -38 70 -38 81 0 18 4 19 48
11 26 -4 97 -8 157 -8 134 -1 165 12 275 110 78 71 76 70 158 40z m9131 -1239
c44 -132 -206 -398 -510 -541 -150 -71 -197 -80 -399 -81 -196 0 -255 12 -395
82 -166 84 -309 213 -236 213 11 0 59 -10 108 -22 66 -16 120 -22 213 -22 142
-1 187 10 334 77 89 40 95 41 231 48 188 9 297 50 470 175 169 122 168 121
184 71z"/>
</g>
</svg>
